# AST/ASF file generated using VICON BodyLanguage
# -----------------------------------------------
:version 1.10
:name VICON
:units
  mass 1.0
  length 0.45
  angle deg
:documentation
   .ast/.asf automatically generated from VICON data using
   VICON BodyBuilder and BodyLanguage model FoxedUp or BRILLIANT.MOD
:root
   order TX TY TZ RX RY RZ
   axis XYZ
   position 0 0 0  
   orientation 0 0 0 
:bonedata
  begin
     id 1 
     name lhipjoint
     direction 0.588788 -0.725889 0.355548 
     length 2.37778 
     axis 0 0 0  XYZ
  end
  begin
     id 2 
     name lfemur
     direction 0.34202 -0.939693 0  
     length 6.86393  
     axis 0 0 20  XYZ
    dof rx ry rz
    limits (-160.0 20.0)
           (-70.0 70.0)
           (-60.0 70.0)
  end
  begin
     id 3 
     name ltibia
     direction 0.34202 -0.939693 0   
     length 7.32851   
     axis 0 0 20   XYZ
    dof rx
    limits (-10.0 170.0)
  end
  begin
     id 4 
     name lfoot
     direction 0.0626533 -0.172138 0.983078   
     length 1.98929   
     axis -90 7.62852e-016 20   XYZ
    dof rx rz
    limits (-45.0 90.0)
           (-70.0 20.0)
  end
  begin
     id 5 
     name ltoes
     direction 1.53647e-011 -4.21734e-011 1   
     length 1.00479   
     axis -90 7.62852e-016 20   XYZ
    dof rx
    limits (-90.0 20.0)
  end
  begin
     id 6 
     name rhipjoint
     direction -0.59141 -0.724168 0.354705   
     length 2.38343  
     axis 0 0 0  XYZ 
  end
  begin
     id 7 
     name rfemur
     direction -0.34202 -0.939693 0   
     length 6.95589   
     axis 0 0 -20   XYZ
    dof rx ry rz
    limits (-160.0 20.0)
           (-70.0 70.0)
           (-70.0 60.0)
  end
  begin
     id 8 
     name rtibia
     direction -0.34202 -0.939693 0   
     length 7.32327   
     axis 0 0 -20   XYZ
    dof rx
    limits (-10.0 170.0)
 end
 begin
     id 9 
     name rfoot
     direction -0.0660461 -0.18146 0.981178   
     length 1.85272  
     axis -90 -7.62852e-016 -20   XYZ
    dof rx rz
    limits (-45.0 90.0)
           (-20.0 70.0)
  end
  begin
     id 10 
     name rtoes
     direction -1.53586e-011 -4.21988e-011 1   
     length 0.93746   
     axis -90 -7.62852e-016 -20   XYZ
    dof rx
    limits (-90.0 20.0)
  end
  begin
     id 11 
     name lowerback
     direction -0.0107982 0.991059 0.13299   
     length 1.98691   
     axis 0 0 0   XYZ
    dof rx ry rz
    limits (-20.0 45.0)
           (-30.0 30.0)
           (-30.0 30.0)
  end
  begin
     id 12 
     name upperback
     direction 0.0076296 0.999916 0.0104576   
     length 1.99501   
     axis 0 0 0   XYZ
    dof rx ry rz
    limits (-20.0 45.0)
           (-30.0 30.0)
           (-30.0 30.0)
  end
  begin
     id 13 
     name thorax
     direction 0.01176 0.998615 -0.0512909   
     length 2.03144   
     axis 0 0 0   XYZ
    dof rx ry rz
    limits (-20.0 45.0)
           (-30.0 30.0)
           (-30.0 30.0)
  end
  begin
     id 14 
     name lowerneck
     direction -0.0171909 0.999644 0.0204011   
     length 1.71818   
     axis 0 0 0   XYZ
    dof rx ry rz
    limits (-20.0 45.0)
           (-30.0 30.0)
           (-30.0 30.0)
  end
  begin
     id 15 
     name upperneck
     direction 0.0250902 0.997482 -0.0663316   
     length 1.66199   
     axis 0 0 0   XYZ
    dof rx ry rz
    limits (-20.0 45.0)
           (-30.0 30.0)
           (-30.0 30.0)
  end
  begin
     id 16
     name head
     direction 0.00881535 0.99956 -0.0283365  
     length 1.81545  
     axis 0 0 0   XYZ
    dof rx ry rz
    limits (-20.0 45.0)
           (-30.0 30.0)
           (-30.0 30.0)
  end
  begin
     id 17 
     name lclavicle
     direction 0.840411 0.486876 -0.238035  
     length 3.30409  
     axis 0 0 0   XYZ
    dof ry rz
    limits (-20.0 10.0)
           (0.0 20.0)
  end
  begin
     id 18 
     name lhumerus
     direction 1 -4.48977e-011 -5.16239e-027   
     length 4.62672   
     axis 180 -30 -90   XYZ
    dof rx ry rz
    limits (-60.0 90.0)
           (-90.0 90.0)
           (-90.0 90.0)
  end
  begin
     id 19
     name lradius
     direction 1 -4.48977e-011 -8.71171e-027   
     length 3.11018   
     axis 180 -30 -90   XYZ
    dof rx
    limits (-10.0 170.0)
  end
  begin
     id 20
     name lwrist
     direction 1 -4.48912e-011 -1.03764e-026   
     length 1.55509   
     axis 9.09556e-015 90 90   XYZ
    dof ry
    limits (-180.0 0.0)
 end
  begin
     id 21 
     name lhand
     direction 1 -4.49072e-011 -2.07528e-026   
     length 0.743834   
     axis 1.3242e-014 90 90   XYZ
    dof rx rz
    limits (-90.0 90.0)
           (-45.0 45.0)
  end
  begin
     id 22 
     name lfingers
     direction 1 -4.48909e-011 -4.15056e-026   
     length 0.599698   
     axis 2.64841e-014 90 90   XYZ
    dof rx
    limits (0.0 90.0)
  end
  begin
     id 23
     name lthumb
     direction 0.707107 -6.35013e-011 0.707107   
     length 0.86105   
     axis -90 45 2.85299e-015   XYZ
    dof rx rz
    limits (-45.0 45.0)
           (-45.0 45.0)
  end
  begin
     id 24 
     name rclavicle
     direction -0.835208 0.500237 -0.228452   
     length 3.2716  
     axis 0 0 0   XYZ 
    dof ry rz
    limits (-10.0 20.0)
           (-20.0 0.0)
  end
  begin
     id 25 
     name rhumerus
     direction -1 -4.48978e-011 -5.1953e-028  
     length 4.55919   
     axis 180 30 90   XYZ
    dof rx ry rz
    limits (-90.0 60.0)
           (-90.0 90.0)
           (-90.0 90.0)
  end
  begin
     id 26 
     name rradius
     direction -1 -4.48961e-011 -5.99546e-027   
     length 3.22748   
     axis 180 30 90   XYZ
    dof rx
    limits (-10.0 170.0)
  end
  begin
     id 27 
     name rwrist
     direction -1 -4.48986e-011 -1.03764e-026   
     length 1.61374   
     axis 9.09556e-015 -90 -90   XYZ
    dof ry
    limits (-180.0 0.0)
  end
  begin
     id 28
     name rhand
     direction -1 -4.4899e-011 -2.07528e-026   
     length 0.700882   
     axis 1.3242e-014 -90 -90   XYZ
    dof rx rz
    limits (-90.0 90.0)
           (-45.0 45.0)
  end
  begin
     id 29
     name rfingers
     direction -1 -4.48991e-011 -4.15056e-026   
     length 0.565069   
     axis 2.64841e-014 -90 -90   XYZ
    dof rx
    limits (0.0 90.0)
  end
  begin
     id 30
     name rthumb
     direction -0.707107 -6.34804e-011 0.707107   
     length 0.811329   
     axis -90 -45 -2.85299e-015   XYZ
    dof rx rz
    limits (-45.0 45.0)
           (-45.0 45.0)
  end
:hierarchy
  begin
    root lhipjoint rhipjoint lowerback
    lhipjoint lfemur
    lfemur ltibia
    ltibia lfoot
    lfoot ltoes
    rhipjoint rfemur
    rfemur rtibia
    rtibia rfoot
    rfoot rtoes
    lowerback upperback
    upperback thorax
    thorax lowerneck lclavicle rclavicle
    lowerneck upperneck
    upperneck head
    lclavicle lhumerus
    lhumerus lradius
    lradius lwrist
    lwrist lhand lthumb
    lhand lfingers
    rclavicle rhumerus
    rhumerus rradius
    rradius rwrist
    rwrist rhand rthumb
    rhand rfingers
  end

#!OML:ASF F:\VICON\USERDATA\INSTALL\SteveWalk\SteveWalk.ASF
:FULLY-SPECIFIED
:DEGREES
332
root -0.0328564 16.1719 22.111 15.9252 3.22421 2.18303
lowerback -13.268 -2.45416 -4.92754
upperback -5.25161 -2.63524 0.178945
thorax 2.12666 -1.26424 2.56758
lowerneck -3.78747 -1.18207 -1.06972
upperneck 10.4661 -1.80287 2.79666
head 4.14492 -0.806823 1.0383
rclavicle -4.89818e-015 1.39149e-015
rhumerus -63.5117 -37.5147 -43.7946
rradius 12.5298
rwrist 30.8871
rhand -14.9579 -34.1578
rfingers 7.12502
rthumb 11.2053 -63.8386
lclavicle -4.89818e-015 1.39149e-015
lhumerus -23.4422 -8.32513 84.7306
lradius 29.6707
lwrist -2.60044
lhand -16.368 -16.4696
lfingers 7.12502
lthumb 9.84514 13.2802
rfemur -48.2566 -4.33859 21.9161
rtibia 44.0714
rfoot -12.209 -5.09006
rtoes -0.7164
lfemur -17.0472 6.64438 -25.9681
ltibia 29.0508
lfoot -26.7155 -11.1609
ltoes -0.807369
333
root -0.0583004 16.1621 22.2989 15.8097 3.2571 1.83411
lowerback -13.0413 -2.38388 -4.93457
upperback -5.19337 -2.55922 0.364487
thorax 2.06811 -1.22489 2.78368
lowerneck -3.96206 -1.23144 -0.990797
upperneck 10.4863 -1.87841 2.82474
head 4.18805 -0.83812 1.02977
rclavicle 2.43876e-014 4.87022e-015
rhumerus -65.4655 -38.5894 -40.776
rradius 12.1647
rwrist 33.069
rhand -14.8391 -34.5216
rfingers 7.12502
rthumb 11.3199 -64.1961
lclavicle 2.43876e-014 4.87022e-015
lhumerus -22.7648 -9.36767 84.8013
lradius 30.7651
lwrist -1.55812
lhand -16.8192 -16.5658
lfingers 7.12502
lthumb 9.40975 13.2042
rfemur -48.1431 -3.51911 22.1631
rtibia 40.6434
rfoot -12.0696 -5.43911
rtoes -0.877088
lfemur -15.809 6.80798 -25.3661
ltibia 28.1894
lfoot -26.8358 -10.8525
ltoes -1.96633
334
root -0.023718 16.16 22.4885 15.9063 4.10363 2.65298
lowerback -13.0281 -2.64994 -5.12983
upperback -5.11026 -2.8759 0.0954085
thorax 2.16974 -1.38596 2.56163
lowerneck -4.01289 -1.28036 -0.926587
upperneck 10.2857 -1.95166 2.8977
head 4.12819 -0.869343 1.03814
rclavicle 1.40959e-014 1.57537e-014
rhumerus -67.7027 -39.8454 -37.1602
rradius 11.7398
rwrist 35.7874
rhand -14.6431 -34.391
rfingers 7.12502
rthumb 11.509 -64.055
lclavicle 1.40959e-014 1.57537e-014
lhumerus -21.9468 -10.3564 84.7977
lradius 31.7219
lwrist -0.441034
lhand -17.1631 -16.6968
lfingers 7.12502
lthumb 9.078 13.0878
rfemur -48.0982 -5.27296 21.7771
rtibia 37.3488
rfoot -11.932 -4.41282
rtoes -2.15814
lfemur -14.5862 6.65588 -26.1035
ltibia 27.2548
lfoot -26.8304 -11.9
ltoes -0.650094
335
root -0.0372882 16.1384 22.6835 15.8897 4.37318 2.54179
lowerback -13.0383 -2.71119 -5.18496
upperback -5.07311 -2.95128 0.197594
thorax 2.22813 -1.42414 2.68626
lowerneck -3.69109 -1.30165 -0.822423
upperneck 9.93761 -1.98356 2.94021
head 3.94011 -0.884446 1.03141
rclavicle -3.01543e-014 -3.21037e-014
rhumerus -68.6599 -39.877 -35.9751
rradius 11.6948
rwrist 36.4188
rhand -14.8647 -34.1648
rfingers 7.12502
rthumb 11.2953 -63.8407
lclavicle -3.01543e-014 -3.21037e-014
lhumerus -21.2381 -11.2216 84.7402
lradius 32.5261
lwrist 0.609573
lhand -17.8187 -17.1612
lfingers 7.12502
lthumb 8.44532 12.65
rfemur -47.8223 -5.15757 22.016
rtibia 34.0098
rfoot -11.7196 -4.25769
rtoes -6.10167
lfemur -13.3881 6.69033 -25.7194
ltibia 26.3304
lfoot -26.9682 -11.8509
ltoes -1.69376
336
root -0.0456343 16.1251 22.8763 15.9582 4.76265 2.52606
lowerback -13.0684 -2.80459 -5.21499
upperback -5.08638 -3.07096 0.264063
thorax 2.24557 -1.4829 2.75291
lowerneck -3.3656 -1.36729 -0.726547
upperneck 9.67859 -2.06541 2.87654
head 3.78366 -0.928786 0.989276
rclavicle 2.60563e-014 1.33186e-014
rhumerus -69.1885 -39.5544 -35.6384
rradius 11.7953
rwrist 36.3098
rhand -14.9975 -34.4267
rfingers 7.12502
rthumb 11.1671 -64.1095
lclavicle 2.60563e-014 1.33186e-014
lhumerus -20.7289 -11.6778 84.6626
lradius 33.4237
lwrist 1.19796
lhand -18.4292 -17.6438
lfingers 7.12502
lthumb 7.85609 12.1902
rfemur -47.7232 -5.1654 22.0574
rtibia 30.8923
rfoot -11.5813 -3.66372
rtoes -8.63635
lfemur -12.1983 6.61684 -25.4141
ltibia 25.3737
lfoot -26.9951 -11.7741
ltoes -2.63116
337
root -0.0512723 16.1088 23.0679 16.121 5.00753 2.96682
lowerback -13.1291 -2.91674 -5.67611
upperback -5.04807 -3.1549 0.210998
thorax 2.34384 -1.52411 2.9393
lowerneck -3.41794 -1.47951 -0.700797
upperneck 9.55434 -2.21125 2.83877
head 3.75212 -1.00212 0.965097
rclavicle -7.12441e-015 -1.26228e-014
rhumerus -70.1756 -39.7943 -34.2698
rradius 11.7158
rwrist 37.0431
rhand -14.9028 -34.5121
rfingers 7.12502
rthumb 11.2585 -64.19
lclavicle -7.12441e-015 -1.26228e-014
lhumerus -20.1133 -12.0529 84.6002
lradius 34.3659
lwrist 1.68359
lhand -18.8421 -17.8314
lfingers 7.12502
lthumb 7.45758 12.0172
rfemur -47.68 -5.21589 21.5578
rtibia 27.7674
rfoot -11.1109 -3.03302
rtoes -12.693
lfemur -11.2034 6.44753 -25.6611
ltibia 24.6673
lfoot -26.9417 -11.6653
ltoes -3.4042
338
root -0.0556574 16.0891 23.2632 16.3349 5.27246 3.30393
lowerback -13.2828 -3.00312 -5.95667
upperback -4.99642 -3.21903 0.153209
thorax 2.49676 -1.55879 3.01797
lowerneck -3.56463 -1.55506 -0.698925
upperneck 9.44903 -2.31817 2.92198
head 3.74756 -1.05108 0.986719
rclavicle 7.53761e-015 3.10601e-015
rhumerus -71.3488 -40.2671 -32.5193
rradius 11.5573
rwrist 38.0984
rhand -14.7787 -34.2404
rfingers 7.12502
rthumb 11.3781 -63.9117
lclavicle 7.53761e-015 3.10601e-015
lhumerus -19.434 -12.6219 84.5229
lradius 35.2129
lwrist 2.2309
lhand -19.4127 -17.8969
lfingers 7.12502
lthumb 6.90674 11.9705
rfemur -47.4828 -5.45276 21.3443
rtibia 24.4457
rfoot -10.5742 -1.94658
rtoes -16.669
lfemur -10.3597 6.15962 -25.7972
ltibia 24.1525
lfoot -27.0782 -11.388
ltoes -5.15622
339
root -0.057475 16.0656 23.4692 16.4725 5.723 3.44869
lowerback -13.5806 -3.1307 -5.98803
upperback -4.89119 -3.35835 0.164908
thorax 2.78394 -1.63666 3.00883
lowerneck -3.50086 -1.58338 -0.629502
upperneck 9.20044 -2.3486 2.86331
head 3.64605 -1.06872 0.953157
rclavicle -2.13721e-014 -1.53313e-014
rhumerus -71.4859 -40.143 -32.4822
rradius 11.6407
rwrist 37.8053
rhand -14.5074 -34.252
rfingers 7.12502
rthumb 11.6398 -63.9087
lclavicle -2.13721e-014 -1.53313e-014
lhumerus -18.7765 -12.8385 84.4304
lradius 35.9147
lwrist 2.54767
lhand -20.0284 -18.3072
lfingers 7.12502
lthumb 6.31241 11.5788
rfemur -47.5875 -6.09173 21.6151
rtibia 21.8964
rfoot -10.8636 -0.465785
rtoes -15.8613
lfemur -9.22293 5.91092 -25.6481
ltibia 23.2637
lfoot -26.9068 -11.6298
ltoes -5.7783
340
root -0.0584598 16.0099 23.6779 16.5076 6.17334 3.53088
lowerback -13.8243 -3.26825 -5.98318
upperback -4.74523 -3.52063 0.232877
thorax 3.08902 -1.72722 3.0342
lowerneck -3.36818 -1.62109 -0.584371
upperneck 8.83388 -2.38236 2.75454
head 3.49002 -1.09243 0.907554
rclavicle 7.16955e-015 1.57413e-014
rhumerus -70.8627 -39.6068 -33.6368
rradius 11.9212
rwrist 36.6649
rhand -14.1034 -34.6947
rfingers 7.12502
rthumb 12.0294 -64.3289
lclavicle 7.16955e-015 1.57413e-014
lhumerus -18.1269 -12.8276 84.3646
lradius 36.5469
lwrist 2.82755
lhand -20.5437 -18.7199
lfingers 7.12502
lthumb 5.81486 11.1803
rfemur -47.4846 -6.88 22.1284
rtibia 18.4776
rfoot -11.0336 0.600562
rtoes -20.7008
lfemur -8.36554 5.62174 -25.4284
ltibia 23.1838
lfoot -27.1013 -11.5838
ltoes -6.39313
341
root -0.0607446 16.0484 23.8803 16.7012 6.40135 3.61367
lowerback -14.0965 -3.33389 -5.99656
upperback -4.72301 -3.58713 0.292832
thorax 3.27009 -1.76442 3.07964
lowerneck -3.50965 -1.63734 -0.729379
upperneck 8.8024 -2.40428 2.87358
head 3.51169 -1.1025 0.970629
rclavicle 3.43602e-014 -2.18166e-014
rhumerus -71.4151 -39.7322 -32.7758
rradius 11.94
rwrist 37.3104
rhand -13.8892 -34.5545
rfingers 7.12502
rthumb 12.236 -64.1765
lclavicle 3.43602e-014 -2.18166e-014
lhumerus -17.6455 -12.9713 84.3386
lradius 37.237
lwrist 3.33629
lhand -20.9714 -18.9297
lfingers 7.12502
lthumb 5.40199 10.9814
rfemur -47.1205 -7.10356 22.1065
rtibia 17.0821
rfoot -9.25042 2.8512
rtoes -23.6278
lfemur -7.28383 5.24414 -25.3096
ltibia 22.1182
lfoot -26.9489 -10.6853
ltoes -10.8444
342
root -0.0777565 15.9049 24.1013 17.2746 5.97375 4.4241
lowerback -14.7251 -3.39488 -6.99913
upperback -4.86208 -3.47612 0.172992
thorax 3.49274 -1.70962 3.5121
lowerneck -3.62066 -1.60487 -0.829859
upperneck 8.94369 -2.36152 2.91929
head 3.58424 -1.08074 1.00518
rclavicle -2.99252e-014 -2.20651e-014
rhumerus -72.6088 -40.0865 -30.9225
rradius 11.81
rwrist 38.6896
rhand -14.0179 -34.0074
rfingers 7.12502
rthumb 12.1119 -63.6369
lclavicle -2.99252e-014 -2.20651e-014
lhumerus -17.3678 -13.1533 84.3216
lradius 37.9132
lwrist 4.01871
lhand -21.6732 -18.9432
lfingers 7.12502
lthumb 4.72437 10.9841
rfemur -49.2431 -7.52324 22.2552
rtibia 16.0687
rfoot -8.54064 5.5007
rtoes -17.8931
lfemur -6.48896 4.9651 -26.1305
ltibia 21.3401
lfoot -26.9485 -9.40845
ltoes -16.2964
